/* XPM */
static char *result[] = {
/* columns rows colors chars-per-pixel */
"64 64 3 1 ",
"  c black",
". c #2502FE",
"X c white",
/* pixels */
"                                                                ",
"                                                                ",
"                                                                ",
"                        ..............                          ",
"                      ..................                        ",
"                    ......................                      ",
"                  ..........................                    ",
"                 ............................                   ",
"               ................................                 ",
"              ..................................                ",
"             ....................................               ",
"            ......................................              ",
"            ......................................              ",
"           ........................................             ",
"          ..........................................            ",
"          ..........................................            ",
"         ............................................           ",
"        ..............................................          ",
"        ........XXXXX..................XXXXX..........          ",
"        .......XXXXXXX................XXXXXXX.........          ",
"       .......XXXXXXXXX..............XXXXXXXXX.........         ",
"       .......XXXXXXXXX..............XXXXXXXXX.........         ",
"       .......XXXXXXXXX..............XXXXXXXXX.........         ",
"      ........XX..XXXXX..............XX..XXXXX..........        ",
"      ........XX..XXXXX..............XX..XXXXX..........        ",
"      .........XXXXXXX................XXXXXXX...........        ",
"      ..........XXXXX..................XXXXX............        ",
"      ..................................................        ",
"      ..................................................        ",
"      ..................................................        ",
"      ..................................................        ",
"      ..................................................        ",
"      ..................................................        ",
"      ..................................................        ",
"      ..............XX........XX........XX..............        ",
"      .............X..X......X..X......X..X.............        ",
"      ............X....X....X....X....X....X............        ",
"      ..................X..X......X..X..................        ",
"      ...................XX........XX...................        ",
"      ..................................................        ",
"      ..................................................        ",
"      ..................................................        ",
"      ..................................................        ",
"      ..................................................        ",
"      ..................................................        ",
"      ..................................................        ",
"      ..................................................        ",
"      ..................................................        ",
"      ..................................................        ",
"      ..................................................        ",
"      ..................................................        ",
"          ........  ........  ........  ........  .......       ",
"          ........  ........  ........  ........  .......       ",
"          ........  ........  ........  ........  .......       ",
"          ........  ........  ........  ........  .......       ",
"           ......    ......    ......    ......    .....        ",
"            ....      ....      ....      ....      ...         ",
"                                                                ",
"                                                                ",
"                                                                ",
"                                                                ",
"                                                                ",
"                                                                ",
"                                                                "
};
