/* XPM */
static char *_25d1a649508420fdd0d459a01f61649Ki39HrilsMFNb625[] = {
/* columns rows colors chars-per-pixel */
"64 64 2 1 ",
"  c black",
". c #E4B821",
/* pixels */
"                                                                ",
"                                                                ",
"                                                                ",
"                                                                ",
"                                                                ",
"                                                                ",
"                                                                ",
"                                                                ",
"                                                                ",
"                           .............                        ",
"                         .................                      ",
"                       .....................                    ",
"                     .........................                  ",
"                    ...........................                 ",
"                   .............................                ",
"                  ...............................               ",
"                 .................................              ",
"                ...................................             ",
"               .....................................            ",
"               .....................................            ",
"              .......................................           ",
"              .......................................           ",
"             .........................................          ",
"             .........................................          ",
"             .........................................          ",
"             ..........................................         ",
"              .........................................         ",
"                  .....................................         ",
"                     ..................................         ",
"                        ...............................         ",
"                            ...........................         ",
"                               ........................         ",
"                                  .....................         ",
"                             ..........................         ",
"                         ..............................         ",
"                    ...................................         ",
"               ........................................         ",
"             ..........................................         ",
"             .........................................          ",
"             .........................................          ",
"             .........................................          ",
"              .......................................           ",
"              .......................................           ",
"               .....................................            ",
"               .....................................            ",
"                ...................................             ",
"                 .................................              ",
"                  ...............................               ",
"                   .............................                ",
"                    ...........................                 ",
"                     .........................                  ",
"                       .....................                    ",
"                         .................                      ",
"                           .............                        ",
"                                                                ",
"                                                                ",
"                                                                ",
"                                                                ",
"                                                                ",
"                                                                ",
"                                                                ",
"                                                                ",
"                                                                ",
"                                                                "
};
