/* XPM */
static char *_8436d8f48444387ca68f93cf6f33431I6VR7QxYyJLk7uaS[] = {
/* columns rows colors chars-per-pixel */
"64 64 2 1 ",
"  c black",
". c #E4B821",
/* pixels */
"                                                                ",
"                                                                ",
"                                                                ",
"                                                                ",
"                                                                ",
"                                                                ",
"                                                                ",
"                                                                ",
"                                                                ",
"                         .............                          ",
"                      ...................                       ",
"                    .......................                     ",
"                  ...........................                   ",
"                 .............................                  ",
"                ...............................                 ",
"               .................................                ",
"              ...................................               ",
"             .....................................              ",
"            .......................................             ",
"            .......................................             ",
"           .........................................            ",
"           .........................................            ",
"          ...........................................           ",
"          ...........................................           ",
"         .............................................          ",
"         .............................................          ",
"         .............................................          ",
"         .............................................          ",
"         .............................................          ",
"         .............................................          ",
"         ....................... .....................          ",
"         ....................... .....................          ",
"         ....................... .....................          ",
"         ......................  .....................          ",
"         ......................  .....................          ",
"         ......................   ....................          ",
"         .....................    ....................          ",
"          ....................    ...................           ",
"          ....................    ...................           ",
"           ...................     .................            ",
"           ..................      .................            ",
"            .................      ................             ",
"            .................      ................             ",
"             ...............       ...............              ",
"              ..............        .............               ",
"               .............        ............                ",
"                ...........         ...........                 ",
"                 ..........         ..........                  ",
"                  .........         .........                   ",
"                    .......          ......                     ",
"                      ....           ....                       ",
"                                                                ",
"                                                                ",
"                                                                ",
"                                                                ",
"                                                                ",
"                                                                ",
"                                                                ",
"                                                                ",
"                                                                ",
"                                                                ",
"                                                                ",
"                                                                ",
"                                                                "
};
