/* XPM */
static char *_8861d0b288a42fc84bf9895b4dbb7adzzz5LkIJAUzWZ2WX[] = {
/* columns rows colors chars-per-pixel */
"64 64 2 1 ",
"  c black",
". c #E4B821",
/* pixels */
"                                                                ",
"                                                                ",
"                                                                ",
"                                                                ",
"                                                                ",
"                                                                ",
"                                                                ",
"                                                                ",
"                                                                ",
"                                                                ",
"                                                                ",
"                                                                ",
"                                                                ",
"                       ....           ....                      ",
"                     ......          .......                    ",
"                   .........         .........                  ",
"                  ..........         ..........                 ",
"                 ...........         ...........                ",
"                ............        .............               ",
"               .............        ..............              ",
"              ...............       ...............             ",
"             ................      .................            ",
"             ................      .................            ",
"            .................      ..................           ",
"            .................     ...................           ",
"           ...................    ....................          ",
"           ...................    ....................          ",
"          ....................    .....................         ",
"          ....................   ......................         ",
"          .....................  ......................         ",
"          .....................  ......................         ",
"          ..................... .......................         ",
"          ..................... .......................         ",
"          ..................... .......................         ",
"          .............................................         ",
"          .............................................         ",
"          .............................................         ",
"          .............................................         ",
"          .............................................         ",
"          .............................................         ",
"           ...........................................          ",
"           ...........................................          ",
"            .........................................           ",
"            .........................................           ",
"             .......................................            ",
"             .......................................            ",
"              .....................................             ",
"               ...................................              ",
"                .................................               ",
"                 ...............................                ",
"                  .............................                 ",
"                   ...........................                  ",
"                     .......................                    ",
"                       ...................                      ",
"                          .............                         ",
"                                                                ",
"                                                                ",
"                                                                ",
"                                                                ",
"                                                                ",
"                                                                ",
"                                                                ",
"                                                                ",
"                                                                "
};
